<?xml version="1.0" encoding="UTF-8" standalone="no"?>
<!-- Created with Inkscape (http://www.inkscape.org/) -->

<svg
   width="193.76923mm"
   height="172.95105mm"
   viewBox="0 0 193.76923 172.95105"
   version="1.1"
   id="svg5"
   inkscape:version="1.2.1 (9c6d41e410, 2022-07-14)"
   sodipodi:docname="logo_VU.svg"
   xmlns:inkscape="http://www.inkscape.org/namespaces/inkscape"
   xmlns:sodipodi="http://sodipodi.sourceforge.net/DTD/sodipodi-0.dtd"
   xmlns="http://www.w3.org/2000/svg"
   xmlns:svg="http://www.w3.org/2000/svg">
  <sodipodi:namedview
     id="namedview7"
     pagecolor="#ffffff"
     bordercolor="#999999"
     borderopacity="1"
     inkscape:showpageshadow="0"
     inkscape:pageopacity="0"
     inkscape:pagecheckerboard="0"
     inkscape:deskcolor="#d1d1d1"
     inkscape:document-units="mm"
     showgrid="false"
     inkscape:zoom="0.84096521"
     inkscape:cx="303.81756"
     inkscape:cy="367.43494"
     inkscape:window-width="1680"
     inkscape:window-height="987"
     inkscape:window-x="-8"
     inkscape:window-y="-8"
     inkscape:window-maximized="1"
     inkscape:current-layer="layer1" />
  <defs
     id="defs2">
    <pattern
       id="EMFhbasepattern"
       patternUnits="userSpaceOnUse"
       width="6"
       height="6"
       x="0"
       y="0" />
  </defs>
  <g
     inkscape:label="Layer 1"
     inkscape:groupmode="layer"
     id="layer1"
     transform="translate(-8.1925888,-19.823105)">
    <g
       id="g301"
       transform="translate(4.0900424,2.8315678)">
      <path
         style="fill:#568dc3;stroke-width:0.2669"
         d="m 38.476336,179.414 c -0.09588,-0.15514 -0.09823,-0.58526 -0.0052,-0.95583 0.156195,-0.62233 0.250963,-0.65993 1.241471,-0.49259 1.460796,0.2468 2.55556,-0.25332 3.160451,-1.44379 0.36894,-0.72609 2.685529,-11.20001 2.685529,-12.14197 0,-0.0902 0.48042,-0.16394 1.067599,-0.16394 0.58718,0 1.06908,0.0901 1.07089,0.20017 0.0053,0.31957 -1.868058,9.69142 -2.189899,10.95567 -0.396482,1.55746 -1.589404,3.12984 -2.870278,3.7833 -1.149577,0.58647 -3.854086,0.75481 -4.160532,0.25898 z m 33.438572,-3.64761 c 0.477083,-0.0592 1.257765,-0.0592 1.734848,0 0.477084,0.0592 0.08674,0.10765 -0.867424,0.10765 -0.954167,0 -1.344507,-0.0484 -0.867424,-0.10765 z m -20.944631,-0.60044 c -3.245253,-1.97871 -1.268209,-9.01788 3.038152,-10.81719 1.600622,-0.66878 2.941865,-0.52579 3.881462,0.4138 0.703986,0.70399 0.79475,0.95398 0.673791,1.8558 -0.318542,2.37491 -2.290838,3.87471 -6.132457,4.66331 -0.919942,0.18885 -0.965441,0.90924 -0.119539,1.89266 0.80533,0.93625 2.31586,0.93602 4.361852,-5.3e-4 0.821598,-0.37614 1.539352,-0.68389 1.595009,-0.68389 0.330454,0 0.01799,1.41771 -0.405901,1.84159 -1.254693,1.2547 -5.383411,1.75463 -6.892369,0.83459 z m 3.21524,-6.00987 c 1.137764,-0.47539 2.315929,-1.59233 2.315929,-2.19559 0,-0.55564 -0.768319,-1.41011 -1.267939,-1.41011 -0.967405,0 -3.269357,2.60046 -3.269357,3.69332 0,0.43039 1.083928,0.38763 2.221367,-0.0876 z m 15.498899,6.27539 c -0.881252,-0.35614 -2.16424,-2.09147 -2.483406,-3.359 -0.411304,-1.63344 -0.386674,-11.39023 0.02981,-11.80671 0.412873,-0.41287 1.615566,-0.41287 2.028438,0 0.23007,0.23007 0.314995,1.90269 0.30152,5.93852 -0.01132,3.38636 -0.109883,5.40619 -0.24814,5.08444 -0.126161,-0.29359 -0.237824,-2.90587 -0.248139,-5.80507 l -0.01876,-5.27127 h -0.772143 c -0.457883,0 -0.838082,0.17183 -0.934149,0.42218 -0.265382,0.69157 -0.18363,9.53313 0.102075,11.03965 0.336465,1.77417 1.129216,2.88183 2.511962,3.5098 1.070367,0.4861 0.841749,0.69636 -0.269064,0.24746 z m 5.527881,-0.0752 c 1.108005,-0.52758 1.624235,-1.05717 2.143768,-2.19928 0.422524,-0.92885 0.486401,-1.84169 0.491502,-7.02384 l 0.0059,-5.95625 -0.733975,0.0845 -0.733974,0.0845 -0.13345,6.00525 c -0.114532,5.15396 -0.200191,6.10346 -0.604266,6.69808 -1.06027,1.56026 -3.489453,1.79429 -5.073268,0.48878 -0.547228,-0.45107 -0.987348,-1.02157 -0.978041,-1.26777 0.01212,-0.32065 0.08522,-0.27775 0.257673,0.15119 0.695503,1.72993 3.863753,2.18954 5.287343,0.76703 l 0.710209,-0.70968 0.13345,-6.19989 0.13345,-6.19989 0.99188,-0.0823 c 0.879437,-0.073 1.011926,-0.002 1.168719,0.62228 0.09726,0.38752 0.120973,3.06686 0.05269,5.9541 -0.107136,4.53044 -0.19828,5.41403 -0.665389,6.45056 -0.615794,1.36648 -1.508736,2.26668 -2.482053,2.50223 l -0.667249,0.16148 z m 6.654017,-0.17998 c -0.161312,-0.30142 -0.27629,-2.53011 -0.27629,-5.35555 0,-2.82543 0.114978,-5.05412 0.27629,-5.35554 0.173677,-0.32451 0.558047,-0.51625 1.03492,-0.51625 0.814052,0 1.513516,0.5997 1.231563,1.05591 -0.299515,0.48462 0.334068,0.30258 1.352667,-0.38866 0.540784,-0.36699 1.296775,-0.65496 1.679976,-0.63993 0.671913,0.0263 0.668208,0.0342 -0.10397,0.22055 -1.060084,0.25583 -1.764827,0.64935 -2.379727,1.32881 -0.655919,0.72478 -1.006927,0.7092 -0.946077,-0.042 0.08846,-1.09206 -0.0042,-1.26777 -0.668303,-1.26777 -0.377244,0 -0.775712,0.22021 -0.93415,0.51625 -0.326322,0.60974 -0.372949,9.59421 -0.05241,10.09927 0.289942,0.45685 1.321362,0.63417 1.548745,0.26625 0.100346,-0.16237 0.205531,-1.76339 0.233745,-3.55782 0.04548,-2.89265 0.11833,-3.35675 0.642426,-4.09278 0.528442,-0.74213 1.320168,-1.36287 1.738275,-1.36287 0.08347,0 -0.328999,0.43434 -0.916603,0.9652 l -1.068368,0.96521 v 3.51871 c 0,2.38091 -0.103565,3.62228 -0.32028,3.83899 -0.507502,0.5075 -1.759291,0.38913 -2.072428,-0.19597 z m 7.107938,0.33832 c -0.09786,-0.0979 -0.177934,-2.02744 -0.177934,-4.28795 0,-2.33699 -0.12149,-4.3615 -0.281625,-4.69298 -0.272045,-0.56316 -0.267508,-0.56536 0.13345,-0.0649 0.334575,0.41761 0.415075,1.30496 0.415075,4.57546 0,3.51517 0.05853,4.07984 0.43795,4.22544 0.240872,0.0924 0.661239,0.0972 0.93415,0.0106 0.456369,-0.14485 0.496198,-0.49952 0.496198,-4.41848 0,-5.36888 -0.233668,-6.02441 -2.402098,-6.73879 -0.248379,-0.0818 -0.173994,-0.1399 0.195963,-0.15297 0.327975,-0.0116 0.988552,0.32918 1.467949,0.75726 l 0.871636,0.77833 0.08888,4.86385 c 0.07012,3.83701 0.01377,4.91145 -0.266899,5.08937 -0.425828,0.26994 -1.662474,0.306 -1.912695,0.0558 z m 6.080118,-0.1629 c -0.07194,-0.18746 -0.09819,-2.79974 -0.05835,-5.80507 l 0.07244,-5.46424 h 1.067599 1.067599 l 0.07228,5.58571 c 0.05552,4.29038 -0.0064,5.63563 -0.2669,5.80098 -0.53081,0.3369 -1.809826,0.26009 -1.954675,-0.11738 z m 1.688016,-0.14967 c 0.260163,-0.16512 0.322489,-1.45743 0.2669,-5.53408 l -0.07252,-5.31866 h -0.800699 -0.8007 l -0.07269,5.19668 c -0.03999,2.85817 -0.01372,5.35035 0.05835,5.53817 0.146875,0.38275 0.904986,0.44563 1.42137,0.11789 z m 7.363944,0.28624 c -0.3354,-0.21661 -1.23239,-2.21873 -1.06779,-2.38334 0.057,-0.057 0.29664,0.37904 0.53264,0.96887 0.28947,0.72346 0.63965,1.12526 1.07615,1.23482 0.71141,0.17855 1.76437,-0.26162 1.76437,-0.73756 0,-0.1661 0.0793,-0.22266 0.1763,-0.1257 0.097,0.097 -0.0418,0.41724 -0.30827,0.71173 -0.48302,0.53375 -1.59693,0.70347 -2.1734,0.33118 z m 10.842,-0.29083 c -1.04422,-0.5559 -2.37863,-2.29617 -2.38321,-3.10806 -0.002,-0.32516 0.19551,-0.0966 0.50486,0.58484 0.58367,1.2856 1.54886,2.21465 2.768,2.66438 0.46715,0.17233 0.66733,0.32246 0.44485,0.33362 -0.22248,0.0112 -0.82301,-0.20248 -1.3345,-0.47478 z m 5.16239,0.16927 c 1.05589,-0.27983 1.41566,-0.71894 1.152,-1.40604 -0.11474,-0.29901 -0.30953,-0.33766 -0.78694,-0.15615 -1.10787,0.42121 -2.30026,0.51607 -3.23676,0.25749 -0.99891,-0.27581 -2.55945,-1.86057 -2.54298,-2.58244 0.006,-0.27205 0.15385,-0.13292 0.36388,0.34291 0.72675,1.64641 2.34154,2.35023 4.42987,1.93078 1.98481,-0.39865 1.99526,-0.39611 2.08306,0.50685 0.0711,0.73095 -0.0264,0.87376 -0.7738,1.13433 -0.47032,0.16395 -1.04738,0.28568 -1.28236,0.27051 -0.23499,-0.0152 0.0323,-0.14938 0.59403,-0.29824 z m 4.83642,-0.015 c -0.0719,-0.18746 -0.0982,-2.79974 -0.0584,-5.80507 l 0.0725,-5.46425 h 1.05556 c 0.88021,0 1.07974,0.10164 1.20105,0.61186 l 0.14548,0.61185 0.91928,-0.67858 c 0.5056,-0.37322 1.22623,-0.66222 1.6014,-0.64223 l 0.68212,0.0363 -0.66725,0.1174 c -0.36699,0.0646 -1.1106,0.46858 -1.65247,0.8978 -0.54187,0.42923 -1.04434,0.78041 -1.1166,0.78041 -0.0723,0 -0.16937,-0.33029 -0.21582,-0.73398 -0.0712,-0.61882 -0.21007,-0.73397 -0.88515,-0.73397 h -0.8007 l -0.0722,5.385 c -0.068,5.07019 -0.0429,5.39431 0.42947,5.54422 0.27592,0.0876 0.69874,0.0836 0.93961,-0.009 0.3749,-0.14386 0.43795,-0.66718 0.43795,-3.63475 0,-3.77563 0.26621,-4.68778 1.53709,-5.26683 0.51402,-0.2342 0.44965,-0.1081 -0.31101,0.6093 l -0.95918,0.90462 v 3.74325 c 0,3.16714 -0.065,3.76818 -0.42218,3.90525 -0.71817,0.2756 -1.72325,0.179 -1.86056,-0.17882 z m 8.95524,0.1034 c -0.55721,-0.15382 -0.68079,-0.36952 -0.74932,-1.30789 -0.0451,-0.61803 -0.0113,-1.12369 0.0751,-1.12369 0.0865,0 0.86813,0.23949 1.73703,0.5322 1.24605,0.41977 1.73651,0.47263 2.32152,0.25021 1.47581,-0.56111 1.53881,-1.56855 0.15682,-2.50763 -1.12339,-0.76337 -0.96526,-0.91969 0.22129,-0.21878 1.40797,0.83171 1.32713,2.27427 -0.16231,2.89659 -0.88024,0.36779 -1.78574,0.23117 -3.6865,-0.55623 -0.42249,-0.17502 -0.47529,-0.0834 -0.40035,0.69489 0.0759,0.78851 0.21494,0.93507 1.15393,1.21662 1.11202,0.33343 0.50205,0.44652 -0.66725,0.12371 z m 4.40384,-0.16371 c 0.58718,-0.20774 1.33784,-0.68959 1.66813,-1.07077 0.33029,-0.38119 0.60052,-0.5872 0.60052,-0.45781 0,0.59645 -1.9956,1.93869 -2.85162,1.918 -0.26655,-0.006 -0.004,-0.18169 0.58297,-0.38942 z m 6.12461,0.0603 c -0.0719,-0.18746 -0.0982,-2.79974 -0.0583,-5.80507 l 0.0724,-5.46424 0.75011,-0.086 c 1.44869,-0.16611 1.52374,0.10339 1.46391,5.25651 l -0.0546,4.70479 -0.1612,-4.80419 c -0.0887,-2.64231 -0.18419,-4.8422 -0.21228,-4.88865 -0.0281,-0.0464 -0.38136,-0.0464 -0.78505,0 l -0.73397,0.0845 v 5.47144 5.47145 h 0.65937 c 0.43537,0 0.77404,-0.22667 0.99694,-0.66725 0.18566,-0.36699 0.33934,-0.50922 0.3415,-0.31608 0.009,0.7981 -0.56167,1.38368 -1.34833,1.38368 -0.43983,0 -0.85854,-0.15337 -0.93047,-0.34083 z m 6.92679,-0.56663 -0.90746,-0.90746 v -3.76989 c 0,-3.71763 -0.009,-3.77322 -0.63085,-4.00974 -0.61448,-0.23363 -1.12377,-1.01718 -0.84338,-1.29757 0.0769,-0.0769 0.13974,-0.006 0.13974,0.15708 0,0.16325 0.33028,0.45479 0.73397,0.64787 l 0.73397,0.35105 0.13345,4.02756 c 0.14473,4.36801 0.24985,4.69151 1.73475,5.33866 0.54216,0.23628 0.64133,0.35238 0.30704,0.35945 -0.27157,0.006 -0.90212,-0.39791 -1.40123,-0.89701 z m 3.69656,0.63713 c 0.2569,-0.1595 0.46708,-0.45822 0.46708,-0.66382 0,-0.2056 -0.21018,-0.49625 -0.46708,-0.64587 -0.25689,-0.14963 -0.34696,-0.27386 -0.20017,-0.27608 1.02417,-0.0154 1.27121,1.64731 0.2669,1.79648 -0.48798,0.0725 -0.49371,0.0544 -0.0667,-0.21071 z m 5.53818,0.0778 c -1.32277,-0.49704 -2.94886,-2.495 -2.93004,-3.60011 0.003,-0.18934 0.24317,0.17873 0.53322,0.81793 0.57211,1.2608 1.49232,2.12869 2.77882,2.62083 0.45047,0.17233 0.63889,0.31297 0.41869,0.31255 -0.22019,-5.3e-4 -0.5805,-0.0685 -0.80069,-0.1512 z m 4.67074,-0.16906 c 0.77543,-0.23287 1.09094,-0.4829 1.15289,-0.91363 0.0989,-0.68747 -0.21609,-0.73579 -1.94997,-0.2992 -1.447,0.36436 -2.6785,0.0137 -3.70145,-1.05406 -0.77395,-0.80783 -1.29331,-2.19106 -1.00054,-2.66476 0.11115,-0.17984 1.41906,-0.32303 3.37409,-0.36937 l 3.19258,-0.0757 -0.0506,-1.51673 c -0.0781,-2.34288 -0.78912,-3.43136 -2.6826,-4.10703 -0.79769,-0.28464 -0.87177,-0.36045 -0.36135,-0.36977 0.82142,-0.015 2.30531,1.11341 2.85043,2.16756 0.23242,0.44945 0.44248,1.55421 0.4668,2.45503 l 0.0442,1.63784 -3.33625,0.13345 c -3.65943,0.14638 -3.66564,0.15041 -2.84658,1.8443 0.74395,1.53855 3.03444,2.14962 5.10573,1.36212 0.91994,-0.34977 1.21055,-0.1609 1.21055,0.78672 0,0.61119 -0.16355,0.81586 -0.84053,1.05185 -0.46229,0.16116 -1.03279,0.28378 -1.26777,0.2725 -0.23499,-0.0113 0.0532,-0.16479 0.64035,-0.34113 z m 5.00306,0.0534 c -0.2433,-0.2433 -0.33231,-1.78218 -0.33231,-5.74529 v -5.41298 l 0.64614,-0.16217 c 0.35537,-0.0892 0.86582,-0.11986 1.13432,-0.0682 0.45492,0.0876 0.48818,0.48483 0.48818,5.82871 v 5.73469 l -0.80201,0.0788 c -0.44111,0.0433 -0.95155,-0.0708 -1.13432,-0.25356 z m 1.47506,-0.18225 c 0.26016,-0.16512 0.32249,-1.45743 0.2669,-5.53408 l -0.0725,-5.31866 -0.63707,-0.0901 c -0.35039,-0.0495 -0.73889,0.0706 -0.86334,0.2669 -0.36907,0.58226 -0.29102,10.20239 0.0858,10.57924 0.37105,0.37105 0.74163,0.40041 1.22019,0.0967 z m 5.40927,-0.29912 c -0.891,-0.95382 -1.07118,-1.91802 -1.07501,-5.75286 -0.003,-2.79083 -0.0333,-2.95264 -0.60346,-3.2028 -0.43077,-0.18899 -0.60053,-0.4898 -0.60053,-1.06416 0,-0.62715 0.13016,-0.81919 0.60053,-0.88599 0.37544,-0.0533 0.60052,-0.27022 0.60052,-0.57869 0,-0.27138 0.0729,-0.68339 0.16201,-0.91559 0.19042,-0.49625 0.66996,-0.57804 0.51916,-0.0885 -0.0565,0.18349 -0.17307,0.65558 -0.25897,1.04909 -0.10424,0.47752 -0.35575,0.74381 -0.75626,0.8007 -0.81154,0.11526 -1.01883,1.28628 -0.22769,1.28628 0.91299,0 1.1115,0.86045 1.07906,4.67744 -0.0332,3.90719 0.0172,4.07615 1.48444,4.97321 0.59862,0.36599 0.67616,0.4898 0.30726,0.49054 -0.27139,5.4e-4 -0.82537,-0.35433 -1.23106,-0.78862 z m 3.52607,0.51929 c 0.89844,-0.55781 0.40588,-1.33107 -0.84788,-1.33107 -0.48033,0 -1.35404,-0.78382 -1.35404,-1.21473 0,-0.1312 0.18697,0.0284 0.41548,0.35464 0.25256,0.36059 0.69736,0.59479 1.13433,0.59728 0.39536,0.002 0.87948,0.10591 1.07581,0.23036 0.53425,0.33863 0.27536,1.48031 -0.35697,1.57423 -0.48798,0.0725 -0.49371,0.0544 -0.0667,-0.21071 z M 17.291936,174.84116 c -0.134913,-0.33909 -0.390029,-1.69748 -0.566923,-3.01864 -0.176894,-1.32115 -0.484432,-3.46958 -0.683419,-4.7743 -0.198985,-1.30471 -0.297806,-2.47573 -0.2196,-2.60227 0.175558,-0.28406 1.633746,-0.30586 1.80609,-0.027 0.06903,0.11169 0.323138,1.64303 0.564688,3.40298 0.50661,3.69117 0.657195,4.40094 0.933705,4.40094 0.110016,0 0.654862,-0.75065 1.210769,-1.66812 3.52551,-5.8185 3.924172,-6.33887 4.856282,-6.33887 0.48474,0 0.881345,0.10886 0.881345,0.24191 0,0.21782 -1.118592,2.07852 -5.229707,8.69923 -1.234582,1.98823 -1.394063,2.1409 -2.316889,2.21794 -0.826956,0.0691 -1.031658,-0.0193 -1.236341,-0.5338 z m 9.394015,-0.53151 c 0.160259,-1.22472 1.700655,-8.839 1.947513,-9.6267 0.10207,-0.32569 0.423701,-0.46707 1.062542,-0.46707 1.043477,0 1.146682,0.36971 0.606501,2.17268 -0.170314,0.56846 -0.250384,1.09284 -0.177933,1.16529 0.07245,0.0724 0.902402,-0.63824 1.844336,-1.57932 1.2834,-1.28223 1.96656,-1.75848 2.725926,-1.90033 0.557324,-0.10412 1.088724,-0.11389 1.180887,-0.0217 0.09216,0.0922 0.05635,0.61702 -0.0796,1.16636 -0.196035,0.79218 -0.360664,0.98332 -0.795828,0.92401 -0.9002,-0.12271 -2.285344,1.02885 -4.043775,3.36184 -1.07702,1.42893 -1.712104,2.54687 -1.813632,3.19254 -0.383083,2.43621 -0.472889,2.58867 -1.578586,2.68003 l -1.029181,0.085 0.150827,-1.15263 z m 10.064913,0.47974 c 0,-0.69398 1.842406,-10.04793 2.043187,-10.37334 0.06793,-0.11009 0.536794,-0.20017 1.041912,-0.20017 0.661749,0 0.918397,0.11866 0.918397,0.42462 0,0.44511 -1.78225,9.50938 -2.028785,10.3181 -0.09952,0.32646 -0.418187,0.46707 -1.058548,0.46707 -0.787419,0 -0.916163,-0.0894 -0.916163,-0.63628 z m 69.927736,-0.75306 c 0,-0.0791 0.90101,-2.22476 2.00223,-4.76813 1.17919,-2.72343 1.90397,-4.72258 1.7632,-4.86335 -0.6921,-0.6921 -1.24437,0.042 -2.87032,3.81562 -0.91687,2.12792 -1.80298,4.09249 -1.96913,4.36571 -0.29457,0.48442 -0.31038,0.48442 -0.63624,0 -0.18379,-0.27322 -0.91019,-1.93802 -1.61422,-3.69955 -1.83949,-4.60254 -1.88118,-4.67075 -2.85443,-4.67075 -0.789467,0 -0.819613,0.0396 -0.660768,0.86742 0.118354,0.61682 0.09062,0.75176 -0.096,0.46708 -0.144342,-0.22019 -0.264282,-0.67059 -0.266529,-1.00088 -0.0034,-0.50728 0.138598,-0.60052 0.914927,-0.60052 1.17966,0 1.33528,0.23273 3.22672,4.82552 0.84153,2.0434 1.60418,3.71482 1.69478,3.71427 0.0906,-5.3e-4 0.39394,-0.57105 0.67407,-1.26777 0.83611,-2.07946 1.49391,-3.57013 2.38457,-5.40372 0.70069,-1.44252 0.96662,-1.74911 1.57818,-1.81945 0.4297,-0.0494 0.79103,0.0615 0.86907,0.2669 0.0735,0.19332 -0.75474,2.43013 -1.84047,4.97066 -1.77318,4.14911 -2.29964,5.2482 -2.29964,4.80094 z m 46.30528,-0.57775 c -0.33328,-0.50865 -0.39986,-1.3323 -0.33978,-4.20367 l 0.0747,-3.57108 1.06414,-0.0866 c 1.90961,-0.15542 1.88734,-1.38134 -0.0251,-1.38134 -1.1641,0 -1.1725,-0.007 -1.1725,-0.94275 0,-0.72821 -0.13666,-0.99768 -0.60052,-1.18413 -0.36838,-0.14807 -0.4406,-0.24792 -0.18683,-0.2583 0.61955,-0.0253 1.05425,0.53362 1.05425,1.35561 0,0.66721 0.098,0.73924 1.10714,0.81405 0.69754,0.0517 1.21544,0.25487 1.39986,0.54914 0.47578,0.75918 -0.11792,1.38827 -1.39986,1.4833 l -1.10714,0.0821 0.004,3.38763 c 0.002,1.86319 0.0957,3.53177 0.2077,3.70795 0.112,0.17618 0.5005,0.4388 0.86334,0.58361 0.63768,0.25448 0.63986,0.26384 0.0653,0.28019 -0.34392,0.01 -0.76903,-0.24964 -1.00887,-0.61567 z m -12.40901,-1.1198 c 0,-1.24993 -0.33786,-1.83182 -1.53657,-2.64636 -0.54419,-0.36979 -0.82732,-0.67234 -0.62918,-0.67234 0.19814,0 0.82654,0.46629 1.39645,1.03619 0.86814,0.86814 1.0362,1.21445 1.0362,2.1352 0,0.60445 -0.06,1.099 -0.13345,1.099 -0.0734,0 -0.13345,-0.42826 -0.13345,-0.95169 z m -38.07404,-0.011 c -0.10276,-0.2779 -0.70223,-1.76026 -1.33214,-3.29412 -0.62992,-1.53386 -1.09197,-2.84218 -1.02678,-2.90737 0.0652,-0.0652 0.20123,0.10884 0.3023,0.38674 0.10107,0.2779 0.71074,1.75005 1.35483,3.27144 0.64408,1.52138 1.10751,2.8297 1.02985,2.90737 -0.0777,0.0777 -0.2253,-0.0862 -0.32806,-0.36406 z m 9.89044,-2.90738 c 0.0542,-1.77431 0.18307,-2.32147 0.76239,-3.23723 0.86435,-1.36632 2.32072,-2.31118 3.32786,-2.15903 l 0.73962,0.11173 -0.80661,0.04 c -0.96242,0.0477 -2.62393,1.34142 -3.25294,2.53283 -0.2449,0.46388 -0.5331,1.74419 -0.64042,2.84516 l -0.19515,2.00174 z m 44.9586,1.26777 c -0.0551,-0.40369 -0.0245,-1.15434 0.068,-1.66812 0.13487,-0.74862 0.17528,-0.60284 0.20343,0.73397 0.0366,1.73625 -0.0984,2.20077 -0.27145,0.93415 z m -42.66484,-0.39214 c 2.7e-4,-0.10557 1.47185,-0.22568 3.27009,-0.2669 l 3.26952,-0.0749 -0.0779,-1.43367 c -0.13435,-2.47402 -1.12181,-3.84028 -3.12494,-4.3237 -0.76933,-0.18566 -0.77349,-0.1943 -0.10619,-0.22055 0.98041,-0.0386 2.42562,1.0177 2.97189,2.1721 0.25497,0.53883 0.49518,1.67562 0.5338,2.52621 l 0.0702,1.54651 -3.40354,0.13345 c -1.87194,0.0734 -3.40328,0.0471 -3.40297,-0.0585 z m 20.39472,-0.17928 c -1.28585,-0.78411 -1.9827,-1.83557 -1.94466,-2.93427 l 0.0334,-0.96488 0.17613,1.0676 c 0.23285,1.41145 0.40366,1.64887 1.84294,2.56164 1.33122,0.84423 1.23384,1.08804 -0.10781,0.26991 z m 1.46688,-1.71685 c -1.41443,-0.74568 -1.71343,-1.73584 -0.73181,-2.4234 0.64697,-0.45315 2.52046,-0.56875 3.11452,-0.19217 0.20864,0.13225 -0.18991,0.17333 -0.96195,0.0991 -1.49764,-0.1439 -2.46361,0.24482 -2.46361,0.9914 0,0.53657 1.17066,1.61138 1.75509,1.61138 0.19173,0 0.42283,0.1201 0.51356,0.2669 0.2366,0.38284 0.0906,0.34077 -1.2258,-0.35325 z m -21.86103,-0.46798 c 0,-1.08704 1.2668,-2.38157 2.33055,-2.38157 0.72215,0 2.17617,0.77385 1.48852,0.79221 -0.17483,0.005 -0.3921,-0.11162 -0.48283,-0.25841 -0.18469,-0.29885 -1.19731,-0.354 -1.85634,-0.10111 -0.47971,0.18408 -1.213,1.4473 -1.213,2.0896 0,0.33741 0.37522,0.41361 2.03666,0.41361 h 2.03667 l -0.15256,-0.94013 c -0.0905,-0.55765 -0.0504,-0.877 0.0985,-0.78495 0.1381,0.0854 0.25109,0.56846 0.25109,1.07358 v 0.9184 h -2.26865 -2.26864 z m 45.10606,0.19345 c 0,-0.34528 0.2741,-1.03589 0.60911,-1.53468 1.24779,-1.85782 3.92818,-1.02797 3.92818,1.21618 v 0.94628 h -2.26865 c -2.20392,0 -2.26864,-0.0179 -2.26864,-0.62778 z m 4.27039,-0.43982 c 0,-2.10023 -2.66596,-2.54642 -3.693,-0.61807 -0.66537,1.24927 -0.46332,1.41877 1.69125,1.41877 h 2.00175 z m -6.39973,0.0561 c -0.0247,-1.44997 2.40403,-3.81149 3.87853,-3.77121 0.71577,0.0196 0.68832,0.0495 -0.30581,0.33362 -1.47319,0.42105 -2.40707,1.22593 -3.0395,2.61966 -0.29005,0.6392 -0.53,1.00727 -0.53322,0.81793 z m 20.867,-1.52404 c 0.0657,-0.4206 0.32345,-0.55121 1.2154,-0.61587 1.00005,-0.0725 1.13202,-0.15807 1.13202,-0.73398 0,-0.59469 -0.10541,-0.6519 -1.20105,-0.6519 -0.66058,0 -1.20105,-0.0956 -1.20105,-0.21244 0,-0.11685 0.5705,-0.14687 1.26777,-0.0667 1.2432,0.1429 1.26778,0.16383 1.26778,1.07987 0,0.89692 -0.0424,0.9376 -1.06414,1.02076 -0.58527,0.0476 -1.16223,0.22779 -1.28212,0.40035 -0.13814,0.19882 -0.18745,0.11821 -0.13461,-0.22006 z M 86.999824,165.8992 c 0.259685,-0.0677 0.62,-0.0632 0.800699,0.01 0.180699,0.0731 -0.03177,0.12848 -0.472154,0.12304 -0.440384,-0.005 -0.588231,-0.0653 -0.328545,-0.13293 z m 43.165956,-0.0403 c 0.76792,-0.14393 0.94918,-0.3057 1.0186,-0.90907 0.0464,-0.40368 -0.0436,-0.73397 -0.20017,-0.73397 -0.15655,0 -0.28463,-0.13481 -0.28463,-0.29958 0,-0.2026 0.13402,-0.18836 0.41398,0.044 0.252,0.20914 0.38254,0.66576 0.33363,1.16701 -0.0743,0.76112 -0.16114,0.82658 -1.14796,0.86507 l -1.0676,0.0416 z m 3.2028,0.0785 c 0,-0.90102 1.61582,-2.00865 2.85592,-1.95772 0.60657,0.0249 0.54914,0.0688 -0.30509,0.23325 -0.67462,0.12985 -1.32124,0.50353 -1.80157,1.04112 -0.41209,0.46121 -0.74926,0.76872 -0.74926,0.68335 z m 6.39264,-0.65391 c -0.11369,-0.88138 -0.18835,-0.94319 -1.32155,-1.09424 l -1.20104,-0.16009 1.06759,-0.036 c 1.44812,-0.0488 1.79508,0.22425 1.67498,1.31832 l -0.0995,0.90616 z m 9.35445,-1.07212 c 0,-0.12389 0.27023,-0.26363 0.60052,-0.31054 0.46027,-0.0654 0.62006,-0.28788 0.68416,-0.95271 0.0583,-0.60482 0.21992,-0.86619 0.5338,-0.86334 0.29589,0.003 0.34408,0.0716 0.14062,0.20104 -0.17025,0.10833 -0.3504,0.54895 -0.40035,0.97916 -0.0688,0.59227 -0.26902,0.82948 -0.82478,0.97692 -0.40369,0.1071 -0.73397,0.0934 -0.73397,-0.0305 z m -109.848529,-2.2181 c -0.07478,-0.19488 -0.01393,-0.6753 0.135222,-1.0676 0.223139,-0.5869 0.437866,-0.71328 1.211942,-0.71328 0.7728,0 0.940755,0.0984 0.940755,0.55135 0,0.99543 -0.502386,1.58385 -1.352267,1.58385 -0.439827,0 -0.860869,-0.15944 -0.935652,-0.35432 z m 6.975607,0.11483 c -0.08141,-0.13172 -0.07348,-0.61214 0.01762,-1.06759 0.151044,-0.75526 0.256613,-0.82812 1.199853,-0.82812 1.11634,0 1.238441,0.22885 0.773942,1.45058 -0.19865,0.52249 -0.447748,0.68462 -1.051846,0.68462 -0.435356,0 -0.85816,-0.10777 -0.939565,-0.23949 z m 48.742856,-0.8787 0.08286,-1.15046 h 1.067599 1.067599 v 1.0676 c 0,1.0676 0,1.0676 -1.150458,1.15046 l -1.150458,0.0829 z m 1.951157,-0.0829 c 0,-0.70826 -0.100138,-0.81035 -0.867424,-0.88433 -0.834556,-0.0805 -0.867425,-0.047 -0.867425,0.88433 0,0.93129 0.03287,0.9648 0.867425,0.88434 0.767286,-0.074 0.867424,-0.17607 0.867424,-0.88434 z m 47.479879,0.82325 c -0.0797,-0.2078 -0.106,-0.71824 -0.0583,-1.13433 0.0755,-0.65923 0.21242,-0.767 1.06483,-0.838 0.80215,-0.0668 1.01064,0.0207 1.15843,0.48634 0.0991,0.3123 0.10703,0.85941 0.0176,1.2158 -0.13357,0.53219 -0.33016,0.64799 -1.10007,0.64799 -0.5622,0 -0.99547,-0.15122 -1.08242,-0.3778 z m 1.90595,-0.17117 c 0.0959,-0.15513 0.10068,-0.5755 0.0107,-0.93415 -0.12778,-0.50907 -0.33816,-0.65208 -0.95929,-0.65208 -0.73134,0 -0.79561,0.0755 -0.79561,0.93415 0,0.85585 0.0658,0.93415 0.78495,0.93415 0.43172,0 0.86339,-0.12693 0.95927,-0.28207 z m 23.71643,0.17117 c -0.0797,-0.2078 -0.106,-0.71824 -0.0583,-1.13433 0.079,-0.69023 0.18017,-0.75652 1.15423,-0.75652 1.06519,0 1.06778,0.003 1.14967,1.13433 l 0.0821,1.13432 h -1.09133 c -0.6949,0 -1.14398,-0.13723 -1.23629,-0.3778 z m 2.03003,-0.84016 c 0,-0.91176 -0.0358,-0.9476 -0.86524,-0.86742 -1.4428,0.13946 -1.39095,1.81848 0.0562,1.81848 0.74946,0 0.80908,-0.0701 0.80908,-0.95106 z m 5.60489,0.95106 c -0.62115,-0.19892 -0.62684,-0.21553 -0.0825,-0.24029 0.32163,-0.0146 0.659,0.0935 0.74973,0.24029 0.0907,0.1468 0.12784,0.25493 0.0825,0.2403 -0.0454,-0.0146 -0.38274,-0.12277 -0.74973,-0.2403 z M 68.426998,154.68234 c -0.913475,-1.81279 -0.732699,-3.27765 0.404494,-3.27765 0.312222,0 1.210212,0.20254 1.995532,0.45009 1.384815,0.43653 1.449885,0.43379 2.158656,-0.0907 1.469759,-1.08768 1.530238,-1.4553 1.545937,-9.39683 l 0.01444,-7.30262 1.458432,-1.37163 c 2.792673,-2.62645 4.27769,-3.90717 4.530444,-3.90717 0.139917,0 0.254393,0.42037 0.254393,0.93415 0,0.51378 0.09199,0.93415 0.204421,0.93415 0.112435,0 1.823929,-1.43682 3.803322,-3.19295 3.196253,-2.83571 3.733274,-3.21086 4.799949,-3.35311 1.719091,-0.22926 3.426977,-0.62881 7.072844,-1.65466 5.040038,-1.41813 7.715238,-1.79452 10.007058,-1.40796 3.35581,0.56603 5.18013,1.71073 9.03199,5.66723 4.06563,4.17608 5.87451,5.57475 8.21853,6.3548 3.48015,1.15811 6.46315,-0.009 7.87208,-3.0806 1.41343,-3.08119 -0.19816,-6.81349 -3.34565,-7.74819 -2.00715,-0.59606 -2.41569,-0.51591 -3.34385,0.65598 -2.6872,3.39287 -7.97948,1.75469 -8.6338,-2.67254 -0.24735,-1.6736 0.15617,-1.82014 1.52858,-0.5551 1.29806,1.19651 2.18152,1.64561 3.23721,1.64561 1.09047,0 0.73107,-0.46743 -0.93392,-1.21464 -1.83939,-0.82547 -2.17826,-1.35871 -1.29839,-2.04314 1.83965,-1.43105 3.91134,-1.26689 5.56659,0.44109 1.02272,1.05531 1.29916,1.19149 2.76244,1.36088 2.1862,0.25307 4.08774,1.14066 5.28078,2.46491 1.65326,1.83511 1.92177,2.57339 1.91419,5.26304 -0.006,2.03391 -0.11534,2.63328 -0.71512,3.91033 -1.34763,2.86938 -4.06399,4.49701 -7.50505,4.49701 -3.11722,0 -6.38442,-1.41636 -9.64182,-4.17981 -0.96209,-0.8162 -1.80591,-1.42735 -1.87516,-1.35811 -0.0692,0.0692 0.002,0.46299 0.15891,0.87499 0.15665,0.412 0.5724,2.4193 0.92391,4.46068 0.35151,2.04138 0.82675,3.99797 1.05609,4.34798 0.24093,0.36772 0.89632,0.77038 1.55238,0.95375 2.11873,0.59222 2.46882,1.66921 1.63362,5.02566 -0.50898,2.04543 -2.90592,7.77749 -3.37762,8.07726 -0.17787,0.11303 -1.48974,0.20735 -2.91527,0.2096 -2.32068,0.004 -2.64847,-0.0567 -3.13275,-0.57647 -0.61703,-0.66231 -0.94903,-2.04458 -0.68833,-2.86594 0.22287,-0.7022 1.29732,-0.73696 3.09072,-0.1 1.24395,0.44181 1.30592,0.43961 1.86472,-0.0661 0.80397,-0.72758 1.29354,-1.75851 1.59836,-3.36579 0.31546,-1.66344 0.15523,-1.90942 -1.54714,-2.37502 -3.1502,-0.86157 -5.85664,-3.57871 -7.26795,-7.29666 -0.82524,-2.174 -1.44401,-1.24056 -1.45924,2.20134 l -0.009,1.96561 1.13432,0.97757 c 0.65404,0.56366 1.13432,1.21138 1.13432,1.5298 0,0.79887 -0.68288,2.07939 -2.40205,4.5043 -0.83258,1.17436 -1.99426,2.85583 -2.5815,3.7366 l -1.06771,1.6014 -2.955372,0.0752 -2.955379,0.0752 -0.519114,-0.74249 c -1.167367,-1.66968 -0.947834,-3.27804 0.447433,-3.27804 0.417292,0 1.206189,0.18697 1.753107,0.41548 0.569284,0.23787 1.306664,0.3469 1.724848,0.25505 1.366477,-0.30013 3.484647,-3.07381 3.484647,-4.56305 0,-0.24199 -0.63056,-1.12227 -1.40123,-1.95618 -1.25297,-1.35579 -2.188343,-2.86589 -2.742107,-4.42694 -0.327886,-0.92431 -0.927119,-4.23373 -0.927447,-5.12207 -1.74e-4,-0.46842 -0.09939,-0.9129 -0.220484,-0.98774 -0.121092,-0.0748 -1.390184,0.5829 -2.820201,1.46165 -1.43002,0.87876 -3.372727,1.91506 -4.317128,2.30289 -1.488129,0.61113 -1.716312,0.79672 -1.711233,1.39177 0.0096,1.12036 0.969708,2.93347 1.700597,3.21135 1.129186,0.42932 1.312442,1.1481 1.154592,4.52864 -0.149074,3.19264 -0.59189,5.12045 -1.523877,6.63424 l -0.539591,0.87643 -2.867614,-0.0757 -2.867614,-0.0757 -0.642441,-1.21605 c -0.871783,-1.65015 -0.651414,-2.65566 0.5808,-2.65012 0.474287,0.002 1.369501,0.18058 1.989362,0.39652 1.543057,0.53758 2.353623,0.20386 2.75447,-1.13405 0.512738,-1.71137 0.289599,-2.23699 -1.345944,-3.17047 -2.019478,-1.1526 -3.696081,-2.71337 -4.804196,-4.47228 -0.542634,-0.86132 -1.101941,-1.45679 -1.334499,-1.42077 -0.536682,0.0831 -1.686096,2.25809 -2.109471,3.99163 -0.280819,1.14985 -2.397291,6.10371 -3.848698,9.00834 -0.32483,0.65007 -0.417065,0.66917 -3.58216,0.7421 l -3.248747,0.0748 z m 4.355334,-22.27774 c 0,-1.05202 0.741757,-2.13325 2.509971,-3.65866 4.5667,-3.93964 6.774324,-6.18823 6.906114,-7.03428 0.26829,-1.72232 -0.0237,-1.56903 -4.157447,2.18263 -0.878111,0.79695 -1.155985,0.55216 -1.08506,-0.95587 0.03794,-0.8066 0.258522,-1.1982 1.099387,-1.95175 0.578559,-0.51849 2.451291,-2.18672 4.161624,-3.7072 l 3.1097,-2.76449 v -3.42883 -3.42883 l 0.867424,-0.13498 c 0.477084,-0.0742 1.80463,-0.21063 2.950105,-0.3031 1.29223,-0.10431 2.046643,-0.27623 1.987733,-0.45296 -0.05222,-0.15667 -0.921527,-0.54264 -1.931788,-0.85772 -2.048411,-0.63885 -2.417891,-1.06672 -1.292895,-1.4972 1.21212,-0.46383 2.941922,-0.34927 3.980706,0.26363 1.224037,0.7222 1.445708,0.70123 1.445708,-0.13675 0,-1.64907 -2.046542,-3.31071 -4.077604,-3.31071 -0.484343,0 -1.35178,-0.24021 -1.927641,-0.5338 -1.333506,-0.67986 -2.936295,-0.68016 -4.268813,-8e-4 l -1.045433,0.53299 -0.812574,-0.75182 c -0.446916,-0.4135 -1.114597,-0.937861 -1.483738,-1.165239 -0.756688,-0.4661 -2.398183,-0.886723 -2.398183,-0.614526 0,0.09802 0.360315,0.956673 0.800699,1.908125 0.440385,0.95146 0.8007,1.79495 0.8007,1.87445 0,0.15051 -1.623442,-0.10457 -2.287601,-0.35943 -0.640287,-0.2457 -0.428945,0.44807 0.552752,1.81452 0.513782,0.71514 0.934149,1.48253 0.934149,1.7053 0,0.22277 -0.321091,0.9131 -0.713537,1.53406 -1.006725,1.59292 -2.061051,3.99066 -2.971889,6.75863 -1.026732,3.12017 -1.10756,3.52671 -1.63822,8.23991 l -0.451798,4.01276 -0.422721,-0.97171 c -0.493497,-1.13441 -2.048407,-5.60491 -2.354144,-6.76838 -1.300282,-4.94816 -1.642202,-6.37431 -2.123897,-8.85876 -1.042257,-5.37567 -1.401686,-9.314 -1.408121,-15.429119 -0.01241,-11.803072 2.033459,-21.867691 6.663236,-32.779496 0.918017,-2.163649 3.728224,-7.555025 5.414552,-10.387803 3.229127,-5.424448 7.94933,-11.323864 12.994731,-16.241113 5.542806,-5.402022 9.074461,-7.782657 10.807981,-7.285491 1.32842,0.380985 1.92666,1.428768 2.04868,3.588085 0.11886,2.10364 0.21301,1.905538 -3.16332,6.656516 -3.003069,4.225741 -6.690823,10.741681 -6.300346,11.132158 0.09259,0.09259 0.797852,-0.542669 1.567252,-1.411684 2.038761,-2.302728 6.847554,-6.884365 7.477114,-7.123909 0.2976,-0.113236 0.76591,-0.13453 1.04068,-0.04732 0.5675,0.180117 1.55824,1.953225 1.55824,2.78875 0,0.925922 -0.97176,2.535455 -3.0174,4.997725 -3.09728,3.728109 -6.519836,8.774284 -6.180964,9.113154 0.08374,0.08374 0.572623,-0.293315 1.086408,-0.8379 0.513784,-0.544585 1.334298,-1.295358 1.823363,-1.668385 0.771973,-0.588813 0.979533,-0.637079 1.574293,-0.366088 0.68553,0.312347 1.51151,1.671454 1.51151,2.487105 0,0.565734 -1.34666,3.214715 -3.741323,7.359471 -2.378327,4.116488 -3.731875,6.593177 -3.731875,6.828507 0,0.09838 0.53779,-0.316844 1.195087,-0.92272 1.38092,-1.272888 1.829331,-1.355053 2.42594,-0.444511 0.945051,1.442334 0.822569,2.605809 -0.555704,5.278567 -0.701023,1.359433 -1.574423,2.94667 -1.940887,3.527196 -1.487665,2.356642 -4.764353,10.444329 -4.523821,11.165922 0.04633,0.138994 0.786709,-0.605916 1.645285,-1.655349 2.521661,-3.082223 3.65508,-3.612139 4.671824,-2.184255 0.382732,0.537499 0.551973,1.188209 0.551973,2.12227 0,1.404189 -0.526113,2.794307 -3.233907,8.544766 -1.39146,2.955008 -1.477851,3.237276 -0.99078,3.237276 0.171934,0 0.543099,0.20859 0.824806,0.463535 0.486734,0.44049 0.5297,0.43959 0.864341,-0.0181 1.239699,-1.695392 8.437181,-9.152486 12.265031,-12.707436 12.21004,-11.339543 22.71867,-18.786896 37.79948,-26.788076 7.42706,-3.94046 18.0742,-8.227513 21.40602,-8.619103 1.26708,-0.14892 1.53593,-0.09654 2.02746,0.394995 0.70487,0.704864 0.72912,1.889584 0.0562,2.745056 -0.28076,0.356931 -1.96053,1.342696 -3.73283,2.190591 -3.40701,1.629968 -4.23621,2.237565 -2.67086,1.957075 5.41773,-0.970787 8.72087,-1.429913 13.03249,-1.811479 3.84905,-0.340628 8.1627,-0.2093 9.06973,0.27613 0.43531,0.232971 0.55903,0.554956 0.55903,1.454852 0,1.675244 -0.7089,2.449008 -2.60751,2.846064 -4.3301,0.905559 -7.26704,1.777275 -11.15967,3.312311 -3.73726,1.473784 -6.69653,2.809382 -6.22469,2.809382 0.0831,0 1.64272,-0.298861 3.46574,-0.664135 4.1602,-0.833565 6.25184,-0.882101 6.64145,-0.15411 0.15196,0.283938 0.27629,0.760178 0.27629,1.058311 0,0.876541 -1.4542,2.301615 -2.72291,2.66837 -1.98405,0.573546 -6.52848,2.379065 -10.56326,4.196815 -0.77502,0.349164 -1.46694,0.634842 -1.53758,0.634842 -0.0707,0 -0.63759,0.232318 -1.25987,0.516259 -0.62228,0.283944 -1.96108,0.885531 -2.97511,1.336861 -1.01403,0.45133 -1.78234,0.881954 -1.70735,0.956945 0.075,0.07499 0.90465,-0.03659 1.8437,-0.247955 2.68755,-0.604934 6.35312,-1.0119 8.24639,-0.915549 l 1.73485,0.08829 0.0822,1.288397 c 0.0749,1.174541 -1.8e-4,1.366081 -0.84988,2.167456 -0.51264,0.483481 -1.2102,0.939482 -1.55014,1.013335 -4.43787,0.964144 -13.18449,3.805006 -18.9007,6.138866 -3.9885,1.628452 -10.85904,4.920884 -11.10743,5.322785 -0.21946,0.355091 0.16135,0.289818 5.36908,-0.920289 2.20193,-0.511658 4.96434,-1.073944 6.1387,-1.249529 1.17436,-0.175585 2.37541,-0.374898 2.66899,-0.44292 1.42269,-0.329627 8.62349,-0.901086 11.39091,-0.903992 4.09161,-0.0043 4.44409,0.303916 3.39367,2.967463 -0.41079,1.041641 -1.92239,1.608368 -9.17968,3.441638 -9.70381,2.451288 -15.41328,4.101984 -17.56181,5.077394 -1.30902,0.59428 -1.04321,0.61943 2.48197,0.23487 1.39455,-0.15214 3.28996,-0.20015 4.21203,-0.10669 1.39687,0.14158 1.75001,0.28215 2.11739,0.84284 0.39434,0.60185 0.40051,0.78886 0.0584,1.77073 -0.52773,1.51448 -1.6761,2.23089 -3.92841,2.45072 -3.82883,0.37371 -8.37927,1.26127 -12.55475,2.44879 -4.05944,1.15452 -4.34499,1.27725 -4.18066,1.79678 0.28091,0.88815 0.19894,1.43388 -0.31843,2.11977 -0.93461,1.23903 -2.09078,1.7741 -3.83348,1.7741 -1.79764,0 -4.74915,0.4034 -6.79785,0.92909 -1.21548,0.3119 -2.36054,0.81204 -4.87967,2.13135 -1.82863,0.95769 -2.96452,-0.25584 -2.76472,-2.95368 0.0944,-1.27469 5.47741,-5.40768 13.14488,-10.09243 3.04172,-1.85846 1.21967,-1.30851 -3.27526,0.98858 -7.16687,3.66255 -14.67206,8.64773 -18.544433,12.31777 -0.926224,0.87783 -2.553422,1.75042 -3.26416,1.75042 -0.646687,0 -1.534188,-1.08498 -1.771566,-2.16577 -0.203802,-0.9279 -0.667025,-1.19518 -1.395605,-0.80525 -0.775456,0.41501 -4.001351,3.17068 -9.414396,8.04211 -7.518288,6.76603 -9.263856,8.2739 -9.578226,8.2739 -0.159387,0 -0.289792,-0.38291 -0.289792,-0.85091 z M 112.95075,92.544692 c 6.24301,-4.663131 18.80773,-12.648516 28.55827,-18.149928 2.8194,-1.59075 11.05155,-5.70643 13.34499,-6.671854 1.32115,-0.556139 2.5162,-1.111979 2.65565,-1.235204 0.13946,-0.123223 0.46975,-0.224041 0.73398,-0.224041 0.26423,0 0.48042,-0.120105 0.48042,-0.2669 0,-0.401033 -0.17718,-0.361228 -4.03543,0.906677 -12.88013,4.232681 -24.96514,10.924133 -36.39989,20.154571 -5.05655,4.081786 -9.62034,8.249532 -8.27389,7.555887 0.29359,-0.151247 1.61474,-1.082391 2.9359,-2.069208 z M 82.122738,89.171106 c 0.560513,-1.662874 1.450637,-4.024918 1.97805,-5.248982 1.036895,-2.406515 1.172707,-2.963975 0.576965,-2.368233 -1.142777,1.142779 -4.956027,8.066381 -4.956027,8.998509 0,0.33485 1.138466,1.850729 1.291469,1.719606 0.04973,-0.04262 0.549026,-1.438024 1.109543,-3.1009 z m -9.353834,-3.223583 c 2.430398,-7.917013 6.588987,-19.984521 7.749019,-22.486306 0.136129,-0.29359 0.556323,-1.288381 0.933762,-2.210645 1.685875,-4.119414 4.282375,-9.371235 6.572695,-13.294286 0.86495,-1.481557 1.572637,-2.791061 1.572637,-2.91001 0,-0.454461 -2.4768,2.610629 -4.204704,5.203403 -5.279485,7.922036 -9.329494,17.071248 -11.673921,26.372075 -1.159164,4.598656 -2.332584,12.061491 -1.896485,12.061491 0.05894,0 0.485093,-1.231075 0.946997,-2.735722 z M 86.038355,102.651 c -0.338106,-0.33811 -0.1764,-1.10004 0.269801,-1.27127 0.566956,-0.21756 1.279256,0.47004 1.065087,1.02816 -0.162219,0.42273 -1.002272,0.57572 -1.334888,0.24311 z"
         id="path305" />
      <path
         style="fill:#1f1f1f;stroke-width:0.2669"
         d="m 69.95348,175.18401 c -1.382746,-0.62797 -2.175497,-1.73563 -2.511962,-3.5098 -0.285705,-1.50652 -0.367457,-10.34808 -0.102075,-11.03965 0.09607,-0.25035 0.476266,-0.42218 0.934149,-0.42218 h 0.772143 l 0.0041,5.13782 c 0.0047,5.92017 0.236708,7.10893 1.61168,8.25681 1.482537,1.23768 3.954048,0.96117 4.986296,-0.55785 0.404076,-0.59462 0.489734,-1.54412 0.604266,-6.69808 l 0.13345,-6.00525 0.733975,-0.0845 0.733974,-0.0845 v 5.89809 c 0,6.14849 -0.147713,7.11913 -1.272535,8.36204 -1.170607,1.29351 -4.578244,1.67757 -6.627412,0.74695 z m 45.8845,0.15463 c -2.10386,-0.77608 -3.27237,-2.74444 -3.28172,-5.52804 -0.0108,-3.22672 1.878,-5.61507 4.45652,-5.63504 2.56054,-0.0198 3.97787,1.46982 4.134,4.34499 l 0.0779,1.43367 -3.26952,0.0749 -3.26952,0.075 v 0.91664 c 0,0.64335 0.24527,1.19601 0.82265,1.8536 1.21027,1.37842 2.9378,1.70191 4.96753,0.93021 0.6805,-0.25872 1.07688,0.19528 0.80015,0.91645 -0.3142,0.81879 -3.81483,1.21638 -5.43795,0.61763 z m 3.38491,-7.48064 c 0,-1.20681 -1.02227,-2.30762 -2.14298,-2.30762 -1.1289,0 -2.39431,1.25868 -2.39431,2.38157 v 0.82123 h 2.26864 2.26865 z m 15.34674,7.47344 c -0.93899,-0.28155 -1.078,-0.42811 -1.15393,-1.21662 -0.0749,-0.77827 -0.0221,-0.86991 0.40035,-0.69489 1.90076,0.7874 2.80626,0.92402 3.6865,0.55623 0.93513,-0.39072 1.34658,-1.15057 1.0792,-1.99301 -0.0919,-0.28944 -1.01408,-0.92824 -2.15126,-1.49013 -2.34806,-1.1602 -3.06191,-1.94658 -3.06191,-3.37303 0,-2.11809 1.94264,-3.26748 4.941,-2.92341 1.28229,0.14714 1.33431,0.18591 1.41747,1.05625 0.0754,0.78901 0.0247,0.87627 -0.40035,0.68858 -1.89911,-0.83869 -4.19639,-0.18719 -4.03921,1.14549 0.0681,0.57747 0.4389,0.88238 2.08459,1.71418 2.56627,1.29712 3.20279,2.01073 3.20279,3.59066 0,0.96868 -0.14892,1.35562 -0.755,1.9617 -1.2352,1.2352 -3.18261,1.59795 -5.25024,0.978 z m 17.88218,-0.009 c -1.4849,-0.64716 -1.59002,-0.97066 -1.73475,-5.33867 l -0.13345,-4.02756 -0.74932,-0.35841 c -0.9048,-0.43277 -0.86082,-1.16022 0.0835,-1.38095 0.5132,-0.11996 0.685,-0.35189 0.74942,-1.01172 0.0628,-0.64344 0.24135,-0.89568 0.7188,-1.01551 0.89842,-0.22549 1.19937,0.0524 1.19937,1.10762 0,0.90723 0.0143,0.9184 1.1725,0.9184 1.91243,0 1.9347,1.22592 0.0251,1.38134 l -1.06413,0.0866 -0.0747,3.57108 c -0.0879,4.19888 0.13496,4.83626 1.69064,4.83626 1.11726,0 1.54418,0.67978 0.77852,1.23965 -0.61595,0.45039 -1.61634,0.44733 -2.66145,-0.008 z m 8.52255,0.016 c -2.17689,-0.83275 -3.30618,-2.71749 -3.30618,-5.51787 0,-3.0034 1.36026,-5.05734 3.68559,-5.5651 1.87774,-0.41002 3.67039,0.3342 4.45371,1.84896 0.23212,0.44888 0.4448,1.49866 0.47263,2.33286 l 0.0506,1.51673 -3.19258,0.0757 c -1.95503,0.0463 -3.26294,0.18953 -3.37409,0.36937 -0.29277,0.4737 0.22659,1.85693 1.00054,2.66476 1.02295,1.06773 2.25445,1.41842 3.70145,1.05406 1.73388,-0.43659 2.04884,-0.38827 1.94997,0.2992 -0.1527,1.06172 -3.56457,1.6394 -5.44163,0.92134 z m 3.35459,-7.53174 c 0,-2.24415 -2.68039,-3.074 -3.92818,-1.21618 -0.33501,0.49879 -0.60911,1.1894 -0.60911,1.53468 0,0.60986 0.0647,0.62778 2.26864,0.62778 h 2.26865 z m 13.74534,7.39413 c -1.46721,-0.89706 -1.51764,-1.06602 -1.48444,-4.97321 0.0324,-3.81699 -0.16607,-4.67744 -1.07906,-4.67744 -0.79114,0 -0.58385,-1.17102 0.22769,-1.28628 0.40051,-0.0569 0.65202,-0.32318 0.75626,-0.8007 0.29182,-1.33681 0.3612,-1.42011 1.11096,-1.33387 0.63895,0.0735 0.74636,0.21598 0.81833,1.08548 0.0823,0.99383 0.0912,1.00087 1.26777,1.00087 1.07856,0 1.18494,0.0585 1.18494,0.6519 0,0.57614 -0.13184,0.66144 -1.13433,0.73398 l -1.13432,0.0821 -0.0745,3.70699 c -0.0637,3.16954 -0.009,3.779 0.37499,4.20367 0.24722,0.27317 0.66126,0.49668 0.9201,0.49668 1.27573,0 1.76328,0.80888 0.7987,1.32511 -0.76575,0.40982 -1.65309,0.33501 -2.55309,-0.21525 z m -95.820985,-0.21781 c -0.320365,-0.32036 -0.396381,-1.29183 -0.396381,-5.06561 0,-2.70821 0.116038,-4.88604 0.276289,-5.18548 0.158438,-0.29604 0.556906,-0.51625 0.93415,-0.51625 0.664134,0 0.756762,0.17571 0.668303,1.26777 -0.06092,0.75205 0.290294,0.76664 0.948434,0.0394 1.224632,-1.3532 3.638217,-1.80493 4.972513,-0.93067 1.066401,0.69873 1.274903,1.73197 1.274903,6.31784 0,3.87177 -0.04014,4.22532 -0.496198,4.37007 -0.272911,0.0866 -0.693278,0.0819 -0.93415,-0.0106 -0.379755,-0.14573 -0.43795,-0.71399 -0.43795,-4.27645 0,-3.75253 -0.04624,-4.15463 -0.5338,-4.64219 -0.293589,-0.29359 -0.777866,-0.5338 -1.076172,-0.5338 -0.97807,0 -2.302808,0.72435 -2.926414,1.60012 -0.550572,0.7732 -0.617483,1.19314 -0.664271,4.16897 -0.02861,1.82004 -0.134752,3.39188 -0.235859,3.49299 -0.345019,0.34502 -0.976442,0.30082 -1.373397,-0.0961 z m 13.067711,0.10096 c -0.07207,-0.18782 -0.09833,-2.68 -0.05835,-5.53817 l 0.07269,-5.19668 h 0.8007 0.800699 l 0.07252,5.31866 c 0.07572,5.55269 0.03976,5.74395 -1.081774,5.75359 -0.261501,0.002 -0.534422,-0.14958 -0.606496,-0.3374 z m 8.921364,0.008 c -0.22167,-0.18349 -0.60057,-0.81404 -0.84198,-1.40122 -1.2301,-2.99192 -2.71594,-6.52928 -3.16094,-7.52528 -0.709402,-1.58781 -0.654909,-1.94967 0.29359,-1.94967 0.93456,0 0.99296,0.0967 2.82107,4.67075 0.70403,1.76153 1.43043,3.42633 1.61422,3.69955 0.32586,0.48442 0.34167,0.48442 0.63624,0 0.16615,-0.27322 1.05226,-2.23779 1.96913,-4.36571 1.62405,-3.76916 2.17844,-4.5075 2.86727,-3.81867 0.28522,0.28522 -3.90162,10.20794 -4.51069,10.69025 -0.23172,0.18349 -0.61561,0.33362 -0.85309,0.33362 -0.23747,0 -0.61314,-0.15013 -0.83482,-0.33362 z m 21.18013,0.11003 c -0.26016,-0.16512 -0.32249,-1.45743 -0.2669,-5.53408 l 0.0725,-5.31867 h 0.8007 c 0.67508,0 0.81394,0.11515 0.88515,0.73397 0.0465,0.40369 0.14357,0.73398 0.21582,0.73398 0.0723,0 0.57473,-0.35103 1.1166,-0.78007 0.88553,-0.70114 1.6303,-0.93839 2.67107,-0.85087 0.22107,0.0186 0.32004,0.30171 0.2669,0.76351 -0.064,0.5564 -0.24588,0.75254 -0.7517,0.81072 -1.20597,0.13869 -2.56958,0.88393 -3.02355,1.65244 -0.35526,0.60143 -0.44615,1.46145 -0.44615,4.22196 0,2.91496 -0.0672,3.49247 -0.42217,3.62869 -0.54462,0.20899 -0.70597,0.20011 -1.1183,-0.0616 z m 19.27496,-0.11789 c -0.0721,-0.18782 -0.0983,-2.68 -0.0583,-5.53817 l 0.0727,-5.19669 0.63706,-0.0901 c 0.35039,-0.0495 0.73889,0.0706 0.86334,0.2669 0.36907,0.58226 0.29102,10.20239 -0.0858,10.57924 -0.42205,0.42204 -1.26362,0.40955 -1.42892,-0.0212 z m 25.82356,0.0212 c -0.37686,-0.37685 -0.45491,-9.99698 -0.0858,-10.57924 0.12445,-0.19633 0.51295,-0.31644 0.86334,-0.2669 l 0.63707,0.0901 0.0725,5.31866 c 0.0556,4.07665 -0.007,5.36896 -0.2669,5.53408 -0.47856,0.30373 -0.84914,0.27437 -1.22019,-0.0967 z M 95.201912,161.14653 c 0,-0.93129 0.03287,-0.9648 0.867425,-0.88433 0.767286,0.074 0.867424,0.17607 0.867424,0.88433 0,0.70827 -0.100138,0.81036 -0.867424,0.88434 -0.834556,0.0805 -0.867425,0.047 -0.867425,-0.88434 z m 49.376458,0 c 0,-0.85868 0.0643,-0.93415 0.79561,-0.93415 0.62113,0 0.83151,0.14301 0.95928,0.65208 0.22269,0.88729 -0.0396,1.21622 -0.96994,1.21622 -0.71915,0 -0.78495,-0.0783 -0.78495,-0.93415 z m 25.72488,0.54939 c -0.31315,-0.81606 0.0214,-1.34874 0.90056,-1.43372 0.82948,-0.0802 0.86524,-0.0443 0.86524,0.86742 0,0.88099 -0.0596,0.95106 -0.80908,0.95106 -0.4584,0 -0.87307,-0.16677 -0.95672,-0.38476 z"
         id="path303" />
    </g>
  </g>
</svg>
